# xmcd
#
# Track frame offsets: 
#        150
#        7046
#        15238
#        25879
#        37882
#        47318
#        54197
#        65352
#        75927
#        88305
#        100787
#        108116
#
# Disc length: 1609 seconds
#
# Revision: 0
# Processed by: cddbd v1.5.2PL0 Copyright (c) Steve Scherf et al.
# Submitted via: ExactAudioCopy v0.99pb5
#
DISCID=7606470c
DTITLE=The Oak Ridge Boys - Old Time Gospel - Disc 3
DYEAR=2009
DGENRE=Gospel
TTITLE0=Read That Book
TTITLE1=Someday
TTITLE2=There Will Be Peace (Waiting For Me)
TTITLE3=Time Has Mad A Change
TTITLE4=Until Then
TTITLE5=Victory is Coming
TTITLE6=Walk With Me
TTITLE7=Welcome Home
TTITLE8=When I Lay My Burdens Down
TTITLE9=Without God
TTITLE10=You Can Have Him
TTITLE11=You'll Never Walk Alone
EXTD=
EXTT0=
EXTT1=
EXTT2=
EXTT3=
EXTT4=
EXTT5=
EXTT6=
EXTT7=
EXTT8=
EXTT9=
EXTT10=
EXTT11=
PLAYORDER=
